<?xml version="1.0" encoding="UTF-8" standalone="no"?><svg xmlns="http://www.w3.org/2000/svg" xmlns:xlink="http://www.w3.org/1999/xlink" contentScriptType="application/ecmascript" contentStyleType="text/css" height="626px" preserveAspectRatio="none" style="width:1742px;height:626px;background:#FFFFFF;" version="1.1" viewBox="0 0 1742 626" width="1742px" zoomAndPan="magnify"><defs><filter height="300%" id="fwxb7w23iqnyu" width="300%" x="-1" y="-1"><feGaussianBlur result="blurOut" stdDeviation="2.0"/><feColorMatrix in="blurOut" result="blurOut2" type="matrix" values="0 0 0 0 0 0 0 0 0 0 0 0 0 0 0 0 0 0 .4 0"/><feOffset dx="4.0" dy="4.0" in="blurOut2" result="blurOut3"/><feBlend in="SourceGraphic" in2="blurOut3" mode="normal"/></filter></defs><g><!--MD5=[07f4b0780d44952f1d5970af55f479c0]
class 销售人员--><rect codeLine="1" fill="#FEFECE" filter="url(#fwxb7w23iqnyu)" height="48" id="销售人员" style="stroke:#A80036;stroke-width:1.5;" width="80" x="1037" y="392"/><ellipse cx="1052" cy="408" fill="#ADD1B2" rx="11" ry="11" style="stroke:#A80036;stroke-width:1.0;"/><path d="M1054.4731,414.1431 Q1053.8921,414.4419 1053.2529,414.5913 Q1052.6138,414.7407 1051.9082,414.7407 Q1049.4014,414.7407 1048.0815,413.0889 Q1046.7617,411.437 1046.7617,408.3159 Q1046.7617,405.1865 1048.0815,403.5347 Q1049.4014,401.8828 1051.9082,401.8828 Q1052.6138,401.8828 1053.2612,402.0322 Q1053.9087,402.1816 1054.4731,402.4805 L1054.4731,405.2031 Q1053.8423,404.6221 1053.2488,404.3523 Q1052.6553,404.0825 1052.0244,404.0825 Q1050.6797,404.0825 1049.9949,405.1492 Q1049.3101,406.2158 1049.3101,408.3159 Q1049.3101,410.4077 1049.9949,411.4744 Q1050.6797,412.541 1052.0244,412.541 Q1052.6553,412.541 1053.2488,412.2712 Q1053.8423,412.0015 1054.4731,411.4204 Z " fill="#000000"/><text fill="#000000" font-family="sans-serif" font-size="12" lengthAdjust="spacing" textLength="48" x="1066" y="412.5352">销售人员</text><line style="stroke:#A80036;stroke-width:1.5;" x1="1038" x2="1116" y1="424" y2="424"/><line style="stroke:#A80036;stroke-width:1.5;" x1="1038" x2="1116" y1="432" y2="432"/><!--MD5=[97747c22f9c411f53e45f5c9ad0f3419]
class 未确认款项--><rect codeLine="5" fill="#FEFECE" filter="url(#fwxb7w23iqnyu)" height="99.8203" id="未确认款项" style="stroke:#A80036;stroke-width:1.5;" width="92" x="281" y="186.5"/><ellipse cx="296" cy="202.5" fill="#ADD1B2" rx="11" ry="11" style="stroke:#A80036;stroke-width:1.0;"/><path d="M298.4731,208.6431 Q297.8921,208.9419 297.2529,209.0913 Q296.6138,209.2407 295.9082,209.2407 Q293.4014,209.2407 292.0815,207.5889 Q290.7617,205.937 290.7617,202.8159 Q290.7617,199.6865 292.0815,198.0347 Q293.4014,196.3828 295.9082,196.3828 Q296.6138,196.3828 297.2612,196.5322 Q297.9087,196.6816 298.4731,196.9805 L298.4731,199.7031 Q297.8423,199.1221 297.2488,198.8523 Q296.6553,198.5825 296.0244,198.5825 Q294.6797,198.5825 293.9949,199.6492 Q293.3101,200.7158 293.3101,202.8159 Q293.3101,204.9077 293.9949,205.9744 Q294.6797,207.041 296.0244,207.041 Q296.6553,207.041 297.2488,206.7712 Q297.8423,206.5015 298.4731,205.9204 Z " fill="#000000"/><text fill="#000000" font-family="sans-serif" font-size="12" lengthAdjust="spacing" textLength="60" x="310" y="207.0352">未确认款项</text><line style="stroke:#A80036;stroke-width:1.5;" x1="282" x2="372" y1="218.5" y2="218.5"/><text fill="#000000" font-family="sans-serif" font-size="11" lengthAdjust="spacing" textLength="57" x="287" y="233.1348">string 公司</text><text fill="#000000" font-family="sans-serif" font-size="11" lengthAdjust="spacing" textLength="57" x="287" y="246.0898">string 备注</text><text fill="#000000" font-family="sans-serif" font-size="11" lengthAdjust="spacing" textLength="79" x="287" y="259.0449">string 客户单位</text><text fill="#000000" font-family="sans-serif" font-size="11" lengthAdjust="spacing" textLength="79" x="287" y="272">string 交易时间</text><line style="stroke:#A80036;stroke-width:1.5;" x1="282" x2="372" y1="278.3203" y2="278.3203"/><!--MD5=[f37d0c83deb9fc63a17853fe9fc24ded]
class 财报投标保证金--><rect codeLine="11" fill="#FEFECE" filter="url(#fwxb7w23iqnyu)" height="138.6855" id="财报投标保证金" style="stroke:#A80036;stroke-width:1.5;" width="116" x="408" y="167"/><ellipse cx="423" cy="183" fill="#ADD1B2" rx="11" ry="11" style="stroke:#A80036;stroke-width:1.0;"/><path d="M425.4731,189.1431 Q424.8921,189.4419 424.2529,189.5913 Q423.6138,189.7407 422.9082,189.7407 Q420.4014,189.7407 419.0815,188.0889 Q417.7617,186.437 417.7617,183.3159 Q417.7617,180.1865 419.0815,178.5347 Q420.4014,176.8828 422.9082,176.8828 Q423.6138,176.8828 424.2612,177.0322 Q424.9087,177.1816 425.4731,177.4805 L425.4731,180.2031 Q424.8423,179.6221 424.2488,179.3523 Q423.6553,179.0825 423.0244,179.0825 Q421.6797,179.0825 420.9949,180.1492 Q420.3101,181.2158 420.3101,183.3159 Q420.3101,185.4077 420.9949,186.4744 Q421.6797,187.541 423.0244,187.541 Q423.6553,187.541 424.2488,187.2712 Q424.8423,187.0015 425.4731,186.4204 Z " fill="#000000"/><text fill="#000000" font-family="sans-serif" font-size="12" lengthAdjust="spacing" textLength="84" x="437" y="187.5352">财报投标保证金</text><line style="stroke:#A80036;stroke-width:1.5;" x1="409" x2="523" y1="199" y2="199"/><text fill="#000000" font-family="sans-serif" font-size="11" lengthAdjust="spacing" textLength="79" x="414" y="213.6348">string 销售人员</text><text fill="#000000" font-family="sans-serif" font-size="11" lengthAdjust="spacing" textLength="101" x="414" y="226.5898">string 预计收回时间</text><text fill="#000000" font-family="sans-serif" font-size="11" lengthAdjust="spacing" textLength="79" x="414" y="239.5449">string 项目名称</text><text fill="#000000" font-family="sans-serif" font-size="11" lengthAdjust="spacing" textLength="57" x="414" y="252.5">string 客户</text><text fill="#000000" font-family="sans-serif" font-size="11" lengthAdjust="spacing" textLength="79" x="414" y="265.4551">string 申请时间</text><text fill="#000000" font-family="sans-serif" font-size="11" lengthAdjust="spacing" textLength="79" x="414" y="278.4102">string 付款单位</text><text fill="#000000" font-family="sans-serif" font-size="11" lengthAdjust="spacing" textLength="79" x="414" y="291.3652">string 收款单位</text><line style="stroke:#A80036;stroke-width:1.5;" x1="409" x2="523" y1="297.6855" y2="297.6855"/><!--MD5=[3a0f3c99e2d5ae1998713bb42493e914]
class 预存记录--><rect codeLine="20" fill="#FEFECE" filter="url(#fwxb7w23iqnyu)" height="99.8203" id="预存记录" style="stroke:#A80036;stroke-width:1.5;" width="113" x="1319.5" y="186.5"/><ellipse cx="1349.35" cy="202.5" fill="#ADD1B2" rx="11" ry="11" style="stroke:#A80036;stroke-width:1.0;"/><path d="M1351.8231,208.6431 Q1351.2421,208.9419 1350.6029,209.0913 Q1349.9638,209.2407 1349.2582,209.2407 Q1346.7514,209.2407 1345.4315,207.5889 Q1344.1117,205.937 1344.1117,202.8159 Q1344.1117,199.6865 1345.4315,198.0347 Q1346.7514,196.3828 1349.2582,196.3828 Q1349.9638,196.3828 1350.6112,196.5322 Q1351.2587,196.6816 1351.8231,196.9805 L1351.8231,199.7031 Q1351.1923,199.1221 1350.5988,198.8523 Q1350.0053,198.5825 1349.3744,198.5825 Q1348.0297,198.5825 1347.3449,199.6492 Q1346.6601,200.7158 1346.6601,202.8159 Q1346.6601,204.9077 1347.3449,205.9744 Q1348.0297,207.041 1349.3744,207.041 Q1350.0053,207.041 1350.5988,206.7712 Q1351.1923,206.5015 1351.8231,205.9204 Z " fill="#000000"/><text fill="#000000" font-family="sans-serif" font-size="12" lengthAdjust="spacing" textLength="48" x="1366.65" y="207.0352">预存记录</text><line style="stroke:#A80036;stroke-width:1.5;" x1="1320.5" x2="1431.5" y1="218.5" y2="218.5"/><text fill="#000000" font-family="sans-serif" font-size="11" lengthAdjust="spacing" textLength="101" x="1325.5" y="233.1348">string 发票号码单号</text><text fill="#000000" font-family="sans-serif" font-size="11" lengthAdjust="spacing" textLength="79" x="1325.5" y="246.0898">string 销售人员</text><text fill="#000000" font-family="sans-serif" font-size="11" lengthAdjust="spacing" textLength="68" x="1325.5" y="259.0449">string 联系人</text><text fill="#000000" font-family="sans-serif" font-size="11" lengthAdjust="spacing" textLength="57" x="1325.5" y="272">string 客户</text><line style="stroke:#A80036;stroke-width:1.5;" x1="1320.5" x2="1431.5" y1="278.3203" y2="278.3203"/><!--MD5=[8fe7a5e61df0aaf0f8ea66ed15d45fd9]
class 现金流水--><rect codeLine="26" fill="#FEFECE" filter="url(#fwxb7w23iqnyu)" height="48" id="现金流水" style="stroke:#A80036;stroke-width:1.5;" width="80" x="7" y="212.5"/><ellipse cx="22" cy="228.5" fill="#ADD1B2" rx="11" ry="11" style="stroke:#A80036;stroke-width:1.0;"/><path d="M24.4731,234.6431 Q23.8921,234.9419 23.2529,235.0913 Q22.6138,235.2407 21.9082,235.2407 Q19.4014,235.2407 18.0815,233.5889 Q16.7617,231.937 16.7617,228.8159 Q16.7617,225.6865 18.0815,224.0347 Q19.4014,222.3828 21.9082,222.3828 Q22.6138,222.3828 23.2612,222.5322 Q23.9087,222.6816 24.4731,222.9805 L24.4731,225.7031 Q23.8423,225.1221 23.2488,224.8523 Q22.6553,224.5825 22.0244,224.5825 Q20.6797,224.5825 19.9949,225.6492 Q19.3101,226.7158 19.3101,228.8159 Q19.3101,230.9077 19.9949,231.9744 Q20.6797,233.041 22.0244,233.041 Q22.6553,233.041 23.2488,232.7712 Q23.8423,232.5015 24.4731,231.9204 Z " fill="#000000"/><text fill="#000000" font-family="sans-serif" font-size="12" lengthAdjust="spacing" textLength="48" x="36" y="233.0352">现金流水</text><line style="stroke:#A80036;stroke-width:1.5;" x1="8" x2="86" y1="244.5" y2="244.5"/><line style="stroke:#A80036;stroke-width:1.5;" x1="8" x2="86" y1="252.5" y2="252.5"/><!--MD5=[7b72a654a49fcf37816ef78007336f4d]
class 总经办支出--><rect codeLine="28" fill="#FEFECE" filter="url(#fwxb7w23iqnyu)" height="60.9551" id="总经办支出" style="stroke:#A80036;stroke-width:1.5;" width="92" x="72" y="13.5"/><ellipse cx="87" cy="29.5" fill="#ADD1B2" rx="11" ry="11" style="stroke:#A80036;stroke-width:1.0;"/><path d="M89.4731,35.6431 Q88.8921,35.9419 88.2529,36.0913 Q87.6138,36.2407 86.9082,36.2407 Q84.4014,36.2407 83.0815,34.5889 Q81.7617,32.937 81.7617,29.8159 Q81.7617,26.6865 83.0815,25.0347 Q84.4014,23.3828 86.9082,23.3828 Q87.6138,23.3828 88.2612,23.5322 Q88.9087,23.6816 89.4731,23.9805 L89.4731,26.7031 Q88.8423,26.1221 88.2488,25.8523 Q87.6553,25.5825 87.0244,25.5825 Q85.6797,25.5825 84.9949,26.6492 Q84.3101,27.7158 84.3101,29.8159 Q84.3101,31.9077 84.9949,32.9744 Q85.6797,34.041 87.0244,34.041 Q87.6553,34.041 88.2488,33.7712 Q88.8423,33.5015 89.4731,32.9204 Z " fill="#000000"/><text fill="#000000" font-family="sans-serif" font-size="12" lengthAdjust="spacing" textLength="60" x="101" y="34.0352">总经办支出</text><line style="stroke:#A80036;stroke-width:1.5;" x1="73" x2="163" y1="45.5" y2="45.5"/><text fill="#000000" font-family="sans-serif" font-size="11" lengthAdjust="spacing" textLength="57" x="78" y="60.1348">string 用途</text><line style="stroke:#A80036;stroke-width:1.5;" x1="73" x2="163" y1="66.4551" y2="66.4551"/><!--MD5=[ad99de4e361e0fe3ad64ce0056abefca]
class 行政管理费用--><rect codeLine="31" fill="#FEFECE" filter="url(#fwxb7w23iqnyu)" height="48" id="行政管理费用" style="stroke:#A80036;stroke-width:1.5;" width="104" x="199" y="20"/><ellipse cx="214" cy="36" fill="#ADD1B2" rx="11" ry="11" style="stroke:#A80036;stroke-width:1.0;"/><path d="M216.4731,42.1431 Q215.8921,42.4419 215.2529,42.5913 Q214.6138,42.7407 213.9082,42.7407 Q211.4014,42.7407 210.0815,41.0889 Q208.7617,39.437 208.7617,36.3159 Q208.7617,33.1865 210.0815,31.5347 Q211.4014,29.8828 213.9082,29.8828 Q214.6138,29.8828 215.2612,30.0322 Q215.9087,30.1816 216.4731,30.4805 L216.4731,33.2031 Q215.8423,32.6221 215.2488,32.3523 Q214.6553,32.0825 214.0244,32.0825 Q212.6797,32.0825 211.9949,33.1492 Q211.3101,34.2158 211.3101,36.3159 Q211.3101,38.4077 211.9949,39.4744 Q212.6797,40.541 214.0244,40.541 Q214.6553,40.541 215.2488,40.2712 Q215.8423,40.0015 216.4731,39.4204 Z " fill="#000000"/><text fill="#000000" font-family="sans-serif" font-size="12" lengthAdjust="spacing" textLength="72" x="228" y="40.5352">行政管理费用</text><line style="stroke:#A80036;stroke-width:1.5;" x1="200" x2="302" y1="52" y2="52"/><line style="stroke:#A80036;stroke-width:1.5;" x1="200" x2="302" y1="60" y2="60"/><!--MD5=[26ff268d168c3364f110d0b90ea078c9]
class 毛利--><rect codeLine="33" fill="#FEFECE" filter="url(#fwxb7w23iqnyu)" height="60.9551" id="毛利" style="stroke:#A80036;stroke-width:1.5;" width="91" x="620.5" y="13.5"/><ellipse cx="651.25" cy="29.5" fill="#ADD1B2" rx="11" ry="11" style="stroke:#A80036;stroke-width:1.0;"/><path d="M653.7231,35.6431 Q653.1421,35.9419 652.5029,36.0913 Q651.8638,36.2407 651.1582,36.2407 Q648.6514,36.2407 647.3315,34.5889 Q646.0117,32.937 646.0117,29.8159 Q646.0117,26.6865 647.3315,25.0347 Q648.6514,23.3828 651.1582,23.3828 Q651.8638,23.3828 652.5112,23.5322 Q653.1587,23.6816 653.7231,23.9805 L653.7231,26.7031 Q653.0923,26.1221 652.4988,25.8523 Q651.9053,25.5825 651.2744,25.5825 Q649.9297,25.5825 649.2449,26.6492 Q648.5601,27.7158 648.5601,29.8159 Q648.5601,31.9077 649.2449,32.9744 Q649.9297,34.041 651.2744,34.041 Q651.9053,34.041 652.4988,33.7712 Q653.0923,33.5015 653.7231,32.9204 Z " fill="#000000"/><text fill="#000000" font-family="sans-serif" font-size="12" lengthAdjust="spacing" textLength="24" x="668.75" y="34.0352">毛利</text><line style="stroke:#A80036;stroke-width:1.5;" x1="621.5" x2="710.5" y1="45.5" y2="45.5"/><text fill="#000000" font-family="sans-serif" font-size="11" lengthAdjust="spacing" textLength="79" x="626.5" y="60.1348">string 销售人员</text><line style="stroke:#A80036;stroke-width:1.5;" x1="621.5" x2="710.5" y1="66.4551" y2="66.4551"/><!--MD5=[c546e83ab512f5693952719239f619ae]
class 项目--><rect codeLine="36" fill="#FEFECE" filter="url(#fwxb7w23iqnyu)" height="138.6855" id="项目" style="stroke:#A80036;stroke-width:1.5;" width="113" x="1467.5" y="167"/><ellipse cx="1508.15" cy="183" fill="#ADD1B2" rx="11" ry="11" style="stroke:#A80036;stroke-width:1.0;"/><path d="M1510.6231,189.1431 Q1510.0421,189.4419 1509.4029,189.5913 Q1508.7638,189.7407 1508.0582,189.7407 Q1505.5514,189.7407 1504.2315,188.0889 Q1502.9117,186.437 1502.9117,183.3159 Q1502.9117,180.1865 1504.2315,178.5347 Q1505.5514,176.8828 1508.0582,176.8828 Q1508.7638,176.8828 1509.4112,177.0322 Q1510.0587,177.1816 1510.6231,177.4805 L1510.6231,180.2031 Q1509.9923,179.6221 1509.3988,179.3523 Q1508.8053,179.0825 1508.1744,179.0825 Q1506.8297,179.0825 1506.1449,180.1492 Q1505.4601,181.2158 1505.4601,183.3159 Q1505.4601,185.4077 1506.1449,186.4744 Q1506.8297,187.541 1508.1744,187.541 Q1508.8053,187.541 1509.3988,187.2712 Q1509.9923,187.0015 1510.6231,186.4204 Z " fill="#000000"/><text fill="#000000" font-family="sans-serif" font-size="12" lengthAdjust="spacing" textLength="24" x="1527.85" y="187.5352">项目</text><line style="stroke:#A80036;stroke-width:1.5;" x1="1468.5" x2="1579.5" y1="199" y2="199"/><text fill="#000000" font-family="sans-serif" font-size="11" lengthAdjust="spacing" textLength="79" x="1473.5" y="213.6348">string 项目类型</text><text fill="#000000" font-family="sans-serif" font-size="11" lengthAdjust="spacing" textLength="101" x="1473.5" y="226.5898">string 项目主推品牌</text><text fill="#000000" font-family="sans-serif" font-size="11" lengthAdjust="spacing" textLength="79" x="1473.5" y="239.5449">string 销售人员</text><text fill="#000000" font-family="sans-serif" font-size="11" lengthAdjust="spacing" textLength="79" x="1473.5" y="252.5">string 项目结果</text><text fill="#000000" font-family="sans-serif" font-size="11" lengthAdjust="spacing" textLength="101" x="1473.5" y="265.4551">string 项目招标时间</text><text fill="#000000" font-family="sans-serif" font-size="11" lengthAdjust="spacing" textLength="101" x="1473.5" y="278.4102">string 项目招标类别</text><text fill="#000000" font-family="sans-serif" font-size="11" lengthAdjust="spacing" textLength="101" x="1473.5" y="291.3652">string 项目推进描述</text><line style="stroke:#A80036;stroke-width:1.5;" x1="1468.5" x2="1579.5" y1="297.6855" y2="297.6855"/><!--MD5=[168766ab689c7cab96083102449e8637]
class 投标--><rect codeLine="45" fill="#FEFECE" filter="url(#fwxb7w23iqnyu)" height="138.6855" id="投标" style="stroke:#A80036;stroke-width:1.5;" width="113" x="1615.5" y="167"/><ellipse cx="1656.15" cy="183" fill="#ADD1B2" rx="11" ry="11" style="stroke:#A80036;stroke-width:1.0;"/><path d="M1658.6231,189.1431 Q1658.0421,189.4419 1657.4029,189.5913 Q1656.7638,189.7407 1656.0582,189.7407 Q1653.5514,189.7407 1652.2315,188.0889 Q1650.9117,186.437 1650.9117,183.3159 Q1650.9117,180.1865 1652.2315,178.5347 Q1653.5514,176.8828 1656.0582,176.8828 Q1656.7638,176.8828 1657.4112,177.0322 Q1658.0587,177.1816 1658.6231,177.4805 L1658.6231,180.2031 Q1657.9923,179.6221 1657.3988,179.3523 Q1656.8053,179.0825 1656.1744,179.0825 Q1654.8297,179.0825 1654.1449,180.1492 Q1653.4601,181.2158 1653.4601,183.3159 Q1653.4601,185.4077 1654.1449,186.4744 Q1654.8297,187.541 1656.1744,187.541 Q1656.8053,187.541 1657.3988,187.2712 Q1657.9923,187.0015 1658.6231,186.4204 Z " fill="#000000"/><text fill="#000000" font-family="sans-serif" font-size="12" lengthAdjust="spacing" textLength="24" x="1675.85" y="187.5352">投标</text><line style="stroke:#A80036;stroke-width:1.5;" x1="1616.5" x2="1727.5" y1="199" y2="199"/><text fill="#000000" font-family="sans-serif" font-size="11" lengthAdjust="spacing" textLength="101" x="1621.5" y="213.6348">string 中标概率预测</text><text fill="#000000" font-family="sans-serif" font-size="11" lengthAdjust="spacing" textLength="79" x="1621.5" y="226.5898">string 回款周期</text><text fill="#000000" font-family="sans-serif" font-size="11" lengthAdjust="spacing" textLength="79" x="1621.5" y="239.5449">string 销售人员</text><text fill="#000000" font-family="sans-serif" font-size="11" lengthAdjust="spacing" textLength="90" x="1621.5" y="252.5">string 中标服务费</text><text fill="#000000" font-family="sans-serif" font-size="11" lengthAdjust="spacing" textLength="90" x="1621.5" y="265.4551">string 投标毛利率</text><text fill="#000000" font-family="sans-serif" font-size="11" lengthAdjust="spacing" textLength="68" x="1621.5" y="278.4102">string 质保金</text><text fill="#000000" font-family="sans-serif" font-size="11" lengthAdjust="spacing" textLength="101" x="1621.5" y="291.3652">string 客户关系判断</text><line style="stroke:#A80036;stroke-width:1.5;" x1="1616.5" x2="1727.5" y1="297.6855" y2="297.6855"/><!--MD5=[01493a7b4ea061ca1c9b3de63e6947dc]
class 发票--><rect codeLine="54" fill="#FEFECE" filter="url(#fwxb7w23iqnyu)" height="190.5059" id="发票" style="stroke:#A80036;stroke-width:1.5;" width="105" x="707.5" y="141"/><ellipse cx="744.55" cy="157" fill="#ADD1B2" rx="11" ry="11" style="stroke:#A80036;stroke-width:1.0;"/><path d="M747.0231,163.1431 Q746.4421,163.4419 745.8029,163.5913 Q745.1638,163.7407 744.4582,163.7407 Q741.9514,163.7407 740.6315,162.0889 Q739.3117,160.437 739.3117,157.3159 Q739.3117,154.1865 740.6315,152.5347 Q741.9514,150.8828 744.4582,150.8828 Q745.1638,150.8828 745.8112,151.0322 Q746.4587,151.1816 747.0231,151.4805 L747.0231,154.2031 Q746.3923,153.6221 745.7988,153.3523 Q745.2053,153.0825 744.5744,153.0825 Q743.2297,153.0825 742.5449,154.1492 Q741.8601,155.2158 741.8601,157.3159 Q741.8601,159.4077 742.5449,160.4744 Q743.2297,161.541 744.5744,161.541 Q745.2053,161.541 745.7988,161.2712 Q746.3923,161.0015 747.0231,160.4204 Z " fill="#000000"/><text fill="#000000" font-family="sans-serif" font-size="12" lengthAdjust="spacing" textLength="24" x="763.45" y="161.5352">发票</text><line style="stroke:#A80036;stroke-width:1.5;" x1="708.5" x2="811.5" y1="173" y2="173"/><text fill="#000000" font-family="sans-serif" font-size="11" lengthAdjust="spacing" textLength="79" x="713.5" y="187.6348">string 销售人员</text><text fill="#000000" font-family="sans-serif" font-size="11" lengthAdjust="spacing" textLength="57" x="713.5" y="200.5898">string 公司</text><text fill="#000000" font-family="sans-serif" font-size="11" lengthAdjust="spacing" textLength="57" x="713.5" y="213.5449">string 备注</text><text fill="#000000" font-family="sans-serif" font-size="11" lengthAdjust="spacing" textLength="79" x="713.5" y="226.5">string 开票日期</text><text fill="#000000" font-family="sans-serif" font-size="11" lengthAdjust="spacing" textLength="79" x="713.5" y="239.4551">string 开票类型</text><text fill="#000000" font-family="sans-serif" font-size="11" lengthAdjust="spacing" textLength="79" x="713.5" y="252.4102">string 产品名称</text><text fill="#000000" font-family="sans-serif" font-size="11" lengthAdjust="spacing" textLength="79" x="713.5" y="265.3652">string 客户姓名</text><text fill="#000000" font-family="sans-serif" font-size="11" lengthAdjust="spacing" textLength="71" x="713.5" y="278.3203">float 开票金额</text><text fill="#000000" font-family="sans-serif" font-size="11" lengthAdjust="spacing" textLength="79" x="713.5" y="291.2754">string 发票号码</text><text fill="#000000" font-family="sans-serif" font-size="11" lengthAdjust="spacing" textLength="79" x="713.5" y="304.2305">string 开票单位</text><text fill="#000000" font-family="sans-serif" font-size="11" lengthAdjust="spacing" textLength="93" x="713.5" y="317.1855">float 借票开票金额</text><line style="stroke:#A80036;stroke-width:1.5;" x1="708.5" x2="811.5" y1="323.5059" y2="323.5059"/><!--MD5=[a6ccf69654c57188b935917085c02fa0]
class 投标保证金--><rect codeLine="67" fill="#FEFECE" filter="url(#fwxb7w23iqnyu)" height="151.6406" id="投标保证金" style="stroke:#A80036;stroke-width:1.5;" width="113" x="559.5" y="160.5"/><ellipse cx="583.95" cy="176.5" fill="#ADD1B2" rx="11" ry="11" style="stroke:#A80036;stroke-width:1.0;"/><path d="M586.4231,182.6431 Q585.8421,182.9419 585.2029,183.0913 Q584.5638,183.2407 583.8582,183.2407 Q581.3514,183.2407 580.0315,181.5889 Q578.7117,179.937 578.7117,176.8159 Q578.7117,173.6865 580.0315,172.0347 Q581.3514,170.3828 583.8582,170.3828 Q584.5638,170.3828 585.2112,170.5322 Q585.8587,170.6816 586.4231,170.9805 L586.4231,173.7031 Q585.7923,173.1221 585.1988,172.8523 Q584.6053,172.5825 583.9744,172.5825 Q582.6297,172.5825 581.9449,173.6492 Q581.2601,174.7158 581.2601,176.8159 Q581.2601,178.9077 581.9449,179.9744 Q582.6297,181.041 583.9744,181.041 Q584.6053,181.041 585.1988,180.7712 Q585.7923,180.5015 586.4231,179.9204 Z " fill="#000000"/><text fill="#000000" font-family="sans-serif" font-size="12" lengthAdjust="spacing" textLength="60" x="600.05" y="181.0352">投标保证金</text><line style="stroke:#A80036;stroke-width:1.5;" x1="560.5" x2="671.5" y1="192.5" y2="192.5"/><text fill="#000000" font-family="sans-serif" font-size="11" lengthAdjust="spacing" textLength="57" x="565.5" y="207.1348">string 编号</text><text fill="#000000" font-family="sans-serif" font-size="11" lengthAdjust="spacing" textLength="79" x="565.5" y="220.0898">string 销售人员</text><text fill="#000000" font-family="sans-serif" font-size="11" lengthAdjust="spacing" textLength="101" x="565.5" y="233.0449">string 预计收回时间</text><text fill="#000000" font-family="sans-serif" font-size="11" lengthAdjust="spacing" textLength="79" x="565.5" y="246">string 项目名称</text><text fill="#000000" font-family="sans-serif" font-size="11" lengthAdjust="spacing" textLength="57" x="565.5" y="258.9551">string 客户</text><text fill="#000000" font-family="sans-serif" font-size="11" lengthAdjust="spacing" textLength="79" x="565.5" y="271.9102">string 申请时间</text><text fill="#000000" font-family="sans-serif" font-size="11" lengthAdjust="spacing" textLength="79" x="565.5" y="284.8652">string 付款单位</text><text fill="#000000" font-family="sans-serif" font-size="11" lengthAdjust="spacing" textLength="79" x="565.5" y="297.8203">string 收款单位</text><line style="stroke:#A80036;stroke-width:1.5;" x1="560.5" x2="671.5" y1="304.1406" y2="304.1406"/><!--MD5=[462d5195e8c6d246f019c88e878fef42]
class 合同--><rect codeLine="77" fill="#FEFECE" filter="url(#fwxb7w23iqnyu)" height="164.5957" id="合同" style="stroke:#A80036;stroke-width:1.5;" width="146" x="1067" y="154"/><ellipse cx="1123.75" cy="170" fill="#ADD1B2" rx="11" ry="11" style="stroke:#A80036;stroke-width:1.0;"/><path d="M1126.2231,176.1431 Q1125.6421,176.4419 1125.0029,176.5913 Q1124.3638,176.7407 1123.6582,176.7407 Q1121.1514,176.7407 1119.8315,175.0889 Q1118.5117,173.437 1118.5117,170.3159 Q1118.5117,167.1865 1119.8315,165.5347 Q1121.1514,163.8828 1123.6582,163.8828 Q1124.3638,163.8828 1125.0112,164.0322 Q1125.6587,164.1816 1126.2231,164.4805 L1126.2231,167.2031 Q1125.5923,166.6221 1124.9988,166.3523 Q1124.4053,166.0825 1123.7744,166.0825 Q1122.4297,166.0825 1121.7449,167.1492 Q1121.0601,168.2158 1121.0601,170.3159 Q1121.0601,172.4077 1121.7449,173.4744 Q1122.4297,174.541 1123.7744,174.541 Q1124.4053,174.541 1124.9988,174.2712 Q1125.5923,174.0015 1126.2231,173.4204 Z " fill="#000000"/><text fill="#000000" font-family="sans-serif" font-size="12" lengthAdjust="spacing" textLength="24" x="1144.25" y="174.5352">合同</text><line style="stroke:#A80036;stroke-width:1.5;" x1="1068" x2="1212" y1="186" y2="186"/><text fill="#000000" font-family="sans-serif" font-size="11" lengthAdjust="spacing" textLength="79" x="1073" y="200.6348">string 出库单号</text><text fill="#000000" font-family="sans-serif" font-size="11" lengthAdjust="spacing" textLength="79" x="1073" y="213.5898">string 销售人员</text><text fill="#000000" font-family="sans-serif" font-size="11" lengthAdjust="spacing" textLength="82" x="1073" y="226.5449">float 合同总金额</text><text fill="#000000" font-family="sans-serif" font-size="11" lengthAdjust="spacing" textLength="79" x="1073" y="239.5">string 合同明细</text><text fill="#000000" font-family="sans-serif" font-size="11" lengthAdjust="spacing" textLength="79" x="1073" y="252.4551">string 客户名称</text><text fill="#000000" font-family="sans-serif" font-size="11" lengthAdjust="spacing" textLength="134" x="1073" y="265.4102">boolean 合同原件是否返还</text><text fill="#000000" font-family="sans-serif" font-size="11" lengthAdjust="spacing" textLength="68" x="1073" y="278.3652">string 联系人</text><text fill="#000000" font-family="sans-serif" font-size="11" lengthAdjust="spacing" textLength="101" x="1073" y="291.3203">string 项目拍照上传</text><text fill="#000000" font-family="sans-serif" font-size="11" lengthAdjust="spacing" textLength="101" x="1073" y="304.2754">string 合同拍照上传</text><line style="stroke:#A80036;stroke-width:1.5;" x1="1068" x2="1212" y1="310.5957" y2="310.5957"/><!--MD5=[fde20f3ea1a1614241a76faec3e0b0b0]
class 财报--><rect codeLine="88" fill="#FEFECE" filter="url(#fwxb7w23iqnyu)" height="73.9102" id="财报" style="stroke:#A80036;stroke-width:1.5;" width="91" x="950.5" y="7"/><ellipse cx="981.25" cy="23" fill="#ADD1B2" rx="11" ry="11" style="stroke:#A80036;stroke-width:1.0;"/><path d="M983.7231,29.1431 Q983.1421,29.4419 982.5029,29.5913 Q981.8638,29.7407 981.1582,29.7407 Q978.6514,29.7407 977.3315,28.0889 Q976.0117,26.437 976.0117,23.3159 Q976.0117,20.1865 977.3315,18.5347 Q978.6514,16.8828 981.1582,16.8828 Q981.8638,16.8828 982.5112,17.0322 Q983.1587,17.1816 983.7231,17.4805 L983.7231,20.2031 Q983.0923,19.6221 982.4988,19.3523 Q981.9053,19.0825 981.2744,19.0825 Q979.9297,19.0825 979.2449,20.1492 Q978.5601,21.2158 978.5601,23.3159 Q978.5601,25.4077 979.2449,26.4744 Q979.9297,27.541 981.2744,27.541 Q981.9053,27.541 982.4988,27.2712 Q983.0923,27.0015 983.7231,26.4204 Z " fill="#000000"/><text fill="#000000" font-family="sans-serif" font-size="12" lengthAdjust="spacing" textLength="24" x="998.75" y="27.5352">财报</text><line style="stroke:#A80036;stroke-width:1.5;" x1="951.5" x2="1040.5" y1="39" y2="39"/><text fill="#000000" font-family="sans-serif" font-size="11" lengthAdjust="spacing" textLength="57" x="956.5" y="53.6348">string 类型</text><text fill="#000000" font-family="sans-serif" font-size="11" lengthAdjust="spacing" textLength="79" x="956.5" y="66.5898">string 销售人员</text><line style="stroke:#A80036;stroke-width:1.5;" x1="951.5" x2="1040.5" y1="72.9102" y2="72.9102"/><!--MD5=[e34c444469dd71b6e0d5de815953be8b]
class 外派单--><rect codeLine="92" fill="#FEFECE" filter="url(#fwxb7w23iqnyu)" height="112.7754" id="外派单" style="stroke:#A80036;stroke-width:1.5;" width="113" x="847.5" y="180"/><ellipse cx="882.75" cy="196" fill="#ADD1B2" rx="11" ry="11" style="stroke:#A80036;stroke-width:1.0;"/><path d="M885.2231,202.1431 Q884.6421,202.4419 884.0029,202.5913 Q883.3638,202.7407 882.6582,202.7407 Q880.1514,202.7407 878.8315,201.0889 Q877.5117,199.437 877.5117,196.3159 Q877.5117,193.1865 878.8315,191.5347 Q880.1514,189.8828 882.6582,189.8828 Q883.3638,189.8828 884.0112,190.0322 Q884.6587,190.1816 885.2231,190.4805 L885.2231,193.2031 Q884.5923,192.6221 883.9988,192.3523 Q883.4053,192.0825 882.7744,192.0825 Q881.4297,192.0825 880.7449,193.1492 Q880.0601,194.2158 880.0601,196.3159 Q880.0601,198.4077 880.7449,199.4744 Q881.4297,200.541 882.7744,200.541 Q883.4053,200.541 883.9988,200.2712 Q884.5923,200.0015 885.2231,199.4204 Z " fill="#000000"/><text fill="#000000" font-family="sans-serif" font-size="12" lengthAdjust="spacing" textLength="36" x="901.25" y="200.5352">外派单</text><line style="stroke:#A80036;stroke-width:1.5;" x1="848.5" x2="959.5" y1="212" y2="212"/><text fill="#000000" font-family="sans-serif" font-size="11" lengthAdjust="spacing" textLength="79" x="853.5" y="226.6348">string 销售人员</text><text fill="#000000" font-family="sans-serif" font-size="11" lengthAdjust="spacing" textLength="101" x="853.5" y="239.5898">boolean 工程师接单</text><text fill="#000000" font-family="sans-serif" font-size="11" lengthAdjust="spacing" textLength="68" x="853.5" y="252.5449">string 管理员</text><text fill="#000000" font-family="sans-serif" font-size="11" lengthAdjust="spacing" textLength="68" x="853.5" y="265.5">string 工程师</text><text fill="#000000" font-family="sans-serif" font-size="11" lengthAdjust="spacing" textLength="79" x="853.5" y="278.4551">string 客户反馈</text><line style="stroke:#A80036;stroke-width:1.5;" x1="848.5" x2="959.5" y1="284.7754" y2="284.7754"/><!--MD5=[cf07510c2c9d2fda997ad43531233cad]
class 公司--><rect fill="#FEFECE" filter="url(#fwxb7w23iqnyu)" height="48" id="公司" style="stroke:#A80036;stroke-width:1.5;" width="56" x="507" y="392"/><ellipse cx="522" cy="408" fill="#ADD1B2" rx="11" ry="11" style="stroke:#A80036;stroke-width:1.0;"/><path d="M524.4731,414.1431 Q523.8921,414.4419 523.2529,414.5913 Q522.6138,414.7407 521.9082,414.7407 Q519.4014,414.7407 518.0815,413.0889 Q516.7617,411.437 516.7617,408.3159 Q516.7617,405.1865 518.0815,403.5347 Q519.4014,401.8828 521.9082,401.8828 Q522.6138,401.8828 523.2612,402.0322 Q523.9087,402.1816 524.4731,402.4805 L524.4731,405.2031 Q523.8423,404.6221 523.2488,404.3523 Q522.6553,404.0825 522.0244,404.0825 Q520.6797,404.0825 519.9949,405.1492 Q519.3101,406.2158 519.3101,408.3159 Q519.3101,410.4077 519.9949,411.4744 Q520.6797,412.541 522.0244,412.541 Q522.6553,412.541 523.2488,412.2712 Q523.8423,412.0015 524.4731,411.4204 Z " fill="#000000"/><text fill="#000000" font-family="sans-serif" font-size="12" lengthAdjust="spacing" textLength="24" x="536" y="412.5352">公司</text><line style="stroke:#A80036;stroke-width:1.5;" x1="508" x2="562" y1="424" y2="424"/><line style="stroke:#A80036;stroke-width:1.5;" x1="508" x2="562" y1="432" y2="432"/><!--MD5=[283b7023ceb2bec1b7fa5bdc69be2452]
class 费用--><rect codeLine="118" fill="#FEFECE" filter="url(#fwxb7w23iqnyu)" height="99.8203" id="费用" style="stroke:#A80036;stroke-width:1.5;" width="89" x="409.5" y="506.5"/><ellipse cx="439.35" cy="522.5" fill="#ADD1B2" rx="11" ry="11" style="stroke:#A80036;stroke-width:1.0;"/><path d="M441.8231,528.6431 Q441.2421,528.9419 440.6029,529.0913 Q439.9638,529.2407 439.2582,529.2407 Q436.7514,529.2407 435.4315,527.5889 Q434.1117,525.937 434.1117,522.8159 Q434.1117,519.6865 435.4315,518.0347 Q436.7514,516.3828 439.2582,516.3828 Q439.9638,516.3828 440.6112,516.5322 Q441.2587,516.6816 441.8231,516.9805 L441.8231,519.7031 Q441.1923,519.1221 440.5988,518.8523 Q440.0053,518.5825 439.3744,518.5825 Q438.0297,518.5825 437.3449,519.6492 Q436.6601,520.7158 436.6601,522.8159 Q436.6601,524.9077 437.3449,525.9744 Q438.0297,527.041 439.3744,527.041 Q440.0053,527.041 440.5988,526.7712 Q441.1923,526.5015 441.8231,525.9204 Z " fill="#000000"/><text fill="#000000" font-family="sans-serif" font-size="12" lengthAdjust="spacing" textLength="24" x="456.65" y="527.0352">费用</text><line style="stroke:#A80036;stroke-width:1.5;" x1="410.5" x2="497.5" y1="538.5" y2="538.5"/><text fill="#000000" font-family="sans-serif" font-size="11" lengthAdjust="spacing" textLength="49" x="415.5" y="553.1348">float 金额</text><text fill="#000000" font-family="sans-serif" font-size="11" lengthAdjust="spacing" textLength="57" x="415.5" y="566.0898">string 备注</text><text fill="#000000" font-family="sans-serif" font-size="11" lengthAdjust="spacing" textLength="77" x="415.5" y="579.0449">enum 费用类型</text><text fill="#000000" font-family="sans-serif" font-size="11" lengthAdjust="spacing" textLength="57" x="415.5" y="592">string 日期</text><line style="stroke:#A80036;stroke-width:1.5;" x1="410.5" x2="497.5" y1="598.3203" y2="598.3203"/><!--MD5=[818e0a89db3d4cb80c57e5c84fb59cde]
class 支出方式--><rect codeLine="130" fill="#FEFECE" filter="url(#fwxb7w23iqnyu)" height="60.9551" id="支出方式" style="stroke:#A80036;stroke-width:1.5;" width="124" x="122" y="206"/><ellipse cx="156.8" cy="222" fill="#ADD1B2" rx="11" ry="11" style="stroke:#A80036;stroke-width:1.0;"/><path d="M159.2731,228.1431 Q158.6921,228.4419 158.0529,228.5913 Q157.4138,228.7407 156.7082,228.7407 Q154.2014,228.7407 152.8815,227.0889 Q151.5617,225.437 151.5617,222.3159 Q151.5617,219.1865 152.8815,217.5347 Q154.2014,215.8828 156.7082,215.8828 Q157.4138,215.8828 158.0612,216.0322 Q158.7087,216.1816 159.2731,216.4805 L159.2731,219.2031 Q158.6423,218.6221 158.0488,218.3523 Q157.4553,218.0825 156.8244,218.0825 Q155.4797,218.0825 154.7949,219.1492 Q154.1101,220.2158 154.1101,222.3159 Q154.1101,224.4077 154.7949,225.4744 Q155.4797,226.541 156.8244,226.541 Q157.4553,226.541 158.0488,226.2712 Q158.6423,226.0015 159.2731,225.4204 Z " fill="#000000"/><text fill="#000000" font-family="sans-serif" font-size="12" lengthAdjust="spacing" textLength="48" x="175.2" y="226.5352">支出方式</text><line style="stroke:#A80036;stroke-width:1.5;" x1="123" x2="245" y1="238" y2="238"/><text fill="#000000" font-family="sans-serif" font-size="11" lengthAdjust="spacing" textLength="112" x="128" y="252.6348">string 是否为现金支出</text><line style="stroke:#A80036;stroke-width:1.5;" x1="123" x2="245" y1="258.9551" y2="258.9551"/><!--MD5=[0c237056e9b43b7a1961a0cf1deffe97]
class 项目相关--><rect codeLine="138" fill="#FEFECE" filter="url(#fwxb7w23iqnyu)" height="112.7754" id="项目相关" style="stroke:#A80036;stroke-width:1.5;" width="91" x="1551.5" y="500"/><ellipse cx="1571.45" cy="516" fill="#ADD1B2" rx="11" ry="11" style="stroke:#A80036;stroke-width:1.0;"/><path d="M1573.9231,522.1431 Q1573.3421,522.4419 1572.7029,522.5913 Q1572.0638,522.7407 1571.3582,522.7407 Q1568.8514,522.7407 1567.5315,521.0889 Q1566.2117,519.437 1566.2117,516.3159 Q1566.2117,513.1865 1567.5315,511.5347 Q1568.8514,509.8828 1571.3582,509.8828 Q1572.0638,509.8828 1572.7112,510.0322 Q1573.3587,510.1816 1573.9231,510.4805 L1573.9231,513.2031 Q1573.2923,512.6221 1572.6988,512.3523 Q1572.1053,512.0825 1571.4744,512.0825 Q1570.1297,512.0825 1569.4449,513.1492 Q1568.7601,514.2158 1568.7601,516.3159 Q1568.7601,518.4077 1569.4449,519.4744 Q1570.1297,520.541 1571.4744,520.541 Q1572.1053,520.541 1572.6988,520.2712 Q1573.2923,520.0015 1573.9231,519.4204 Z " fill="#000000"/><text fill="#000000" font-family="sans-serif" font-size="12" lengthAdjust="spacing" textLength="48" x="1586.55" y="520.5352">项目相关</text><line style="stroke:#A80036;stroke-width:1.5;" x1="1552.5" x2="1641.5" y1="532" y2="532"/><text fill="#000000" font-family="sans-serif" font-size="11" lengthAdjust="spacing" textLength="79" x="1557.5" y="546.6348">string 联系方式</text><text fill="#000000" font-family="sans-serif" font-size="11" lengthAdjust="spacing" textLength="79" x="1557.5" y="559.5898">string 项目预算</text><text fill="#000000" font-family="sans-serif" font-size="11" lengthAdjust="spacing" textLength="79" x="1557.5" y="572.5449">string 客户名称</text><text fill="#000000" font-family="sans-serif" font-size="11" lengthAdjust="spacing" textLength="79" x="1557.5" y="585.5">string 项目名称</text><text fill="#000000" font-family="sans-serif" font-size="11" lengthAdjust="spacing" textLength="68" x="1557.5" y="598.4551">string 决策人</text><line style="stroke:#A80036;stroke-width:1.5;" x1="1552.5" x2="1641.5" y1="604.7754" y2="604.7754"/><!--MD5=[5e1a9fb6bca054117910651112f6bb82]
reverse link 财报投标保证金 to 销售人员--><path codeLine="102" d="M520.33,315.79 C527.04,321.98 534.28,327.54 542,332 C626.75,380.94 927.65,405.18 1036.95,412.52 " fill="none" id="财报投标保证金-backto-销售人员" style="stroke:#A80036;stroke-width:1.0;"/><polygon fill="#A80036" points="510.87,306.34,512.2897,313.41,519.3619,314.8187,517.9422,307.7487,510.87,306.34" style="stroke:#A80036;stroke-width:1.0;"/><!--MD5=[b50dda57b344e8241ad74ab7b6c0b516]
reverse link 预存记录 to 销售人员--><path codeLine="103" d="M1331.45,296.44 C1319.67,309.37 1306.23,322.13 1292,332 C1237.25,369.96 1162.77,393.65 1117.39,405.58 " fill="none" id="预存记录-backto-销售人员" style="stroke:#A80036;stroke-width:1.0;"/><polygon fill="#A80036" points="1340.12,286.56,1333.155,288.4278,1332.2002,295.5754,1339.1652,293.7076,1340.12,286.56" style="stroke:#A80036;stroke-width:1.0;"/><!--MD5=[d4c6bedbad1e4e4e31cc1ca603ca6258]
reverse link 毛利 to 销售人员--><path codeLine="104" d="M724.74,47.76 C793.97,54.09 908.38,74.66 978,141 C987.57,150.12 1047.5,326.97 1069.18,391.61 " fill="none" id="毛利-backto-销售人员" style="stroke:#A80036;stroke-width:1.0;"/><polygon fill="#A80036" points="711.53,46.67,717.1849,51.1447,723.4903,47.6458,717.8354,43.1712,711.53,46.67" style="stroke:#A80036;stroke-width:1.0;"/><!--MD5=[c9334fbb04c3d7f1d5828e86736fbfe1]
reverse link 项目 to 销售人员--><path codeLine="105" d="M1470.68,315.57 C1464.25,321.74 1457.34,327.37 1450,332 C1343.25,399.33 1189.16,412.43 1117.05,414.71 " fill="none" id="项目-backto-销售人员" style="stroke:#A80036;stroke-width:1.0;"/><polygon fill="#A80036" points="1479.75,306.18,1472.7053,307.7203,1471.4177,314.8155,1478.4624,313.2752,1479.75,306.18" style="stroke:#A80036;stroke-width:1.0;"/><!--MD5=[ebdb01ff3dc7e02712a6e56fa5a66825]
reverse link 投标 to 销售人员--><path codeLine="106" d="M1619.28,315.75 C1612.71,321.94 1605.6,327.52 1598,332 C1516.12,380.22 1224.68,404.8 1117.2,412.38 " fill="none" id="投标-backto-销售人员" style="stroke:#A80036;stroke-width:1.0;"/><polygon fill="#A80036" points="1628.53,306.29,1621.4759,307.7865,1620.1442,314.8736,1627.1983,313.3771,1628.53,306.29" style="stroke:#A80036;stroke-width:1.0;"/><!--MD5=[c318fa49b382698566e9be626d56920a]
reverse link 发票 to 销售人员--><path codeLine="107" d="M822.16,325.8 C824.71,327.98 827.33,330.06 830,332 C893.66,378.29 984.89,400 1036.8,409.16 " fill="none" id="发票-backto-销售人员" style="stroke:#A80036;stroke-width:1.0;"/><polygon fill="#A80036" points="812.62,316.89,814.2752,323.9086,821.3905,325.0802,819.7353,318.0616,812.62,316.89" style="stroke:#A80036;stroke-width:1.0;"/><!--MD5=[29fe207df02b4e39cf620aad83d0dc3d]
reverse link 投标保证金 to 销售人员--><path codeLine="108" d="M676.25,321.91 C680.64,325.61 685.23,329.02 690,332 C801.57,401.77 962.78,413.6 1036.93,415.14 " fill="none" id="投标保证金-backto-销售人员" style="stroke:#A80036;stroke-width:1.0;"/><polygon fill="#A80036" points="666.38,312.78,668.0679,319.7908,675.1885,320.9292,673.5007,313.9184,666.38,312.78" style="stroke:#A80036;stroke-width:1.0;"/><!--MD5=[ddf7d318e70960974075f1a20fadbbe6]
reverse link 合同 to 销售人员--><path codeLine="109" d="M1106.56,331.72 C1098.6,354.16 1090.8,376.13 1085.21,391.87 " fill="none" id="合同-backto-销售人员" style="stroke:#A80036;stroke-width:1.0;"/><polygon fill="#A80036" points="1110.99,319.24,1105.2158,323.5596,1106.9824,330.551,1112.7565,326.2314,1110.99,319.24" style="stroke:#A80036;stroke-width:1.0;"/><!--MD5=[33c6f0f4aa07b179f98f7bd64ab009a1]
reverse link 财报 to 销售人员--><path codeLine="110" d="M1054.57,50.81 C1110.5,59.82 1191.87,82.75 1231,141 C1278.33,211.47 1274.52,259.11 1231,332 C1206.56,372.94 1154.17,394.88 1117.31,405.73 " fill="none" id="财报-backto-销售人员" style="stroke:#A80036;stroke-width:1.0;"/><polygon fill="#A80036" points="1041.65,48.9,1047.0008,53.7342,1053.5211,50.6543,1048.1703,45.8201,1041.65,48.9" style="stroke:#A80036;stroke-width:1.0;"/><!--MD5=[5b22b51a7c4486827f52fa245c3fd2bc]
reverse link 外派单 to 销售人员--><path codeLine="111" d="M960.83,303.05 C969.77,312.89 979.03,322.81 988,332 C1008.37,352.86 1032.64,375.35 1050.69,391.65 " fill="none" id="外派单-backto-销售人员" style="stroke:#A80036;stroke-width:1.0;"/><polygon fill="#A80036" points="952.01,293.26,953.0541,300.3951,960.0419,302.1756,958.9978,295.0405,952.01,293.26" style="stroke:#A80036;stroke-width:1.0;"/><!--MD5=[b8bd1c162601e98597e054885c80e93c]
reverse link 未确认款项 to 公司--><path codeLine="113" d="M361.26,298.02 C369.71,310.11 379.41,322.11 390,332 C425.19,364.87 475.71,390.01 506.88,403.62 " fill="none" id="未确认款项-backto-公司" style="stroke:#A80036;stroke-width:1.0;"/><polygon fill="#A80036" points="353.86,286.96,353.8688,294.1711,360.5286,296.9365,360.5198,289.7254,353.86,286.96" style="stroke:#A80036;stroke-width:1.0;"/><!--MD5=[a35b8c8f54fc50cc4a3670441dcd5068]
reverse link 财报投标保证金 to 公司--><path codeLine="114" d="M497.42,318.31 C507.82,345.07 518.59,372.79 525.92,391.65 " fill="none" id="财报投标保证金-backto-公司" style="stroke:#A80036;stroke-width:1.0;"/><polygon fill="#A80036" points="492.68,306.13,491.1283,313.1722,497.0319,317.3131,498.5836,310.2709,492.68,306.13" style="stroke:#A80036;stroke-width:1.0;"/><!--MD5=[b4c1a667ee4c457d8b0529d0f8fe56e7]
reverse link 发票 to 公司--><path codeLine="115" d="M698.33,324.31 C695.6,326.99 692.82,329.56 690,332 C650.96,365.72 595.92,391.09 563.01,404.44 " fill="none" id="发票-backto-公司" style="stroke:#A80036;stroke-width:1.0;"/><polygon fill="#A80036" points="707.37,314.87,700.3302,316.4322,699.0646,323.5314,706.1044,321.9692,707.37,314.87" style="stroke:#A80036;stroke-width:1.0;"/><!--MD5=[deb4325a4a5f9884cadf3876ce68e298]
reverse link 投标保证金 to 公司--><path codeLine="116" d="M576.23,324.65 C564.9,349.47 553.5,374.46 545.57,391.84 " fill="none" id="投标保证金-backto-公司" style="stroke:#A80036;stroke-width:1.0;"/><polygon fill="#A80036" points="581.77,312.52,575.6433,316.3231,576.7974,323.4412,582.9241,319.6381,581.77,312.52" style="stroke:#A80036;stroke-width:1.0;"/><!--MD5=[fa427051ca063e57a0ce12321b18edc0]
link 财报投标保证金 to 费用--><path codeLine="124" d="M463.41,306.11 C461.4,359.3 458.63,432.7 456.62,486.1 " fill="none" id="财报投标保证金-to-费用" style="stroke:#A80036;stroke-width:1.0;"/><polygon fill="none" points="463.61,486.48,455.86,506.21,449.62,485.96,463.61,486.48" style="stroke:#A80036;stroke-width:1.0;"/><!--MD5=[f7b2ad555879d40f6aa3f9cb4badd08d]
link 投标保证金 to 费用--><path codeLine="125" d="M614.16,312.54 C610.43,352.47 601.32,401.19 580,440 C564.19,468.77 538.52,494.24 514.46,513.9 " fill="none" id="投标保证金-to-费用" style="stroke:#A80036;stroke-width:1.0;"/><polygon fill="none" points="518.68,519.48,498.6,526.24,510.08,508.43,518.68,519.48" style="stroke:#A80036;stroke-width:1.0;"/><!--MD5=[c59739ea24502fec6cc1d35729e2b22c]
link 预存记录 to 费用--><path codeLine="126" d="M1333.51,286.72 C1289.17,334.5 1215.04,404.8 1135,440 C923.05,533.2 643.43,551.52 518.78,554.89 " fill="none" id="预存记录-to-费用" style="stroke:#A80036;stroke-width:1.0;"/><polygon fill="none" points="518.9,561.89,498.75,555.34,518.59,547.89,518.9,561.89" style="stroke:#A80036;stroke-width:1.0;"/><!--MD5=[8577519d9660a8268f8afbf87066b82d]
link 现金流水 to 费用--><path codeLine="127" d="M57.32,260.89 C67.17,281.35 83.54,311.01 104,332 C189.53,419.74 315.76,489.49 390.95,526.46 " fill="none" id="现金流水-to-费用" style="stroke:#A80036;stroke-width:1.0;"/><polygon fill="none" points="394.4,520.36,409.36,535.36,388.31,532.96,394.4,520.36" style="stroke:#A80036;stroke-width:1.0;"/><!--MD5=[0b84e07a5ff5b59c3031d2d2a8964b1b]
link 支出方式 to 费用--><path codeLine="128" d="M208.82,267.36 C224.34,285.99 244.78,310.44 263,332 C308.44,385.76 360.35,446.45 398.57,491.01 " fill="none" id="支出方式-to-费用" style="stroke:#A80036;stroke-width:1.0;"/><polygon fill="none" points="404.03,486.62,411.74,506.36,393.4,495.74,404.03,486.62" style="stroke:#A80036;stroke-width:1.0;"/><!--MD5=[74550793cd4782c650fc5855e834dfd6]
link 总经办支出 to 支出方式--><path codeLine="133" d="M128.31,74.77 C138.68,104.68 154.83,151.3 167.08,186.65 " fill="none" id="总经办支出-to-支出方式" style="stroke:#A80036;stroke-width:1.0;"/><polygon fill="none" points="173.83,184.75,173.76,205.94,160.6,189.34,173.83,184.75" style="stroke:#A80036;stroke-width:1.0;"/><!--MD5=[457e0445e67f52debad8cc02bbb3e9f9]
link 行政管理费用 to 支出方式--><path codeLine="134" d="M242.78,68.36 C232.48,97.67 214.53,148.68 201.17,186.67 " fill="none" id="行政管理费用-to-支出方式" style="stroke:#A80036;stroke-width:1.0;"/><polygon fill="none" points="207.73,189.14,194.49,205.68,194.52,184.49,207.73,189.14" style="stroke:#A80036;stroke-width:1.0;"/><!--MD5=[0342c307ba2b1288cbe760df5ab33a76]
link 毛利 to 支出方式--><path codeLine="135" d="M620.45,46.64 C541.86,51.38 378.13,69.75 263,141 C243.4,153.13 226.29,171.81 213.06,189.36 " fill="none" id="毛利-to-支出方式" style="stroke:#A80036;stroke-width:1.0;"/><polygon fill="none" points="218.63,193.61,201.39,205.92,207.19,185.54,218.63,193.61" style="stroke:#A80036;stroke-width:1.0;"/><!--MD5=[fa98ceeccdf9e59efa0195c5e740af02]
link 财报 to 支出方式--><path codeLine="136" d="M950.18,51.26 C897.01,58.51 806.67,70.76 729,81 C521.97,108.29 446.13,40.65 263,141 C242.54,152.21 225.16,171.04 211.97,188.95 " fill="none" id="财报-to-支出方式" style="stroke:#A80036;stroke-width:1.0;"/><polygon fill="none" points="217.68,192.99,200.63,205.56,206.12,185.1,217.68,192.99" style="stroke:#A80036;stroke-width:1.0;"/><!--MD5=[91de1735613e6d889e80b5491c1265ae]
link 项目 to 项目相关--><path codeLine="145" d="M1539.75,306.11 C1551.52,357.4 1567.61,427.48 1579.74,480.29 " fill="none" id="项目-to-项目相关" style="stroke:#A80036;stroke-width:1.0;"/><polygon fill="none" points="1586.6,478.91,1584.25,499.97,1572.96,482.05,1586.6,478.91" style="stroke:#A80036;stroke-width:1.0;"/><!--MD5=[29d419dc26838b5f863f7ea198a965eb]
link 投标 to 项目相关--><path codeLine="146" d="M1655.82,306.11 C1643.72,357.4 1627.19,427.48 1614.74,480.29 " fill="none" id="投标-to-项目相关" style="stroke:#A80036;stroke-width:1.0;"/><polygon fill="none" points="1621.5,482.11,1610.1,499.97,1607.87,478.9,1621.5,482.11" style="stroke:#A80036;stroke-width:1.0;"/><!--MD5=[4d82567f1c050d8cdfa6af2c4c37e5fd]
@startuml online
class 销售人员{
  
}

class 未确认款项{
  string 公司
  string 备注
  string 客户单位
  string 交易时间
}
class 财报投标保证金{
  string 销售人员
  string 预计收回时间
  string 项目名称
  string 客户
  string 申请时间
  string 付款单位
  string 收款单位
}
class 预存记录{
  string 发票号码单号
  string 销售人员
  string 联系人
  string 客户
}
class 现金流水{
}
class 总经办支出{
  string 用途
}
class 行政管理费用{
}
class 毛利{
  string 销售人员
}
class 项目{
  string 项目类型
  string 项目主推品牌
  string 销售人员
  string 项目结果
  string 项目招标时间
  string 项目招标类别
  string 项目推进描述
}
class 投标{
  string 中标概率预测
  string 回款周期
  string 销售人员
  string 中标服务费
  string 投标毛利率
  string 质保金
  string 客户关系判断
}
class 发票{
  string 销售人员
  string 公司
  string 备注
  string 开票日期
  string 开票类型
  string 产品名称
  string 客户姓名
  float 开票金额
  string 发票号码
  string 开票单位
  float 借票开票金额
}
class 投标保证金{
  string 编号
  string 销售人员
  string 预计收回时间
  string 项目名称
  string 客户
  string 申请时间
  string 付款单位
  string 收款单位
}
class 合同{
  string 出库单号
  string 销售人员
  float 合同总金额
  string 合同明细
  string 客户名称
  boolean 合同原件是否返还
  string 联系人
  string 项目拍照上传
  string 合同拍照上传
}
class 财报{
  string 类型
  string 销售人员
}
class 外派单{
  string 销售人员
  boolean 工程师接单
  string 管理员
  string 工程师
  string 客户反馈
}



财报投标保证金 *- - 销售人员
预存记录 *- - 销售人员
毛利 *- - 销售人员
项目 *- - 销售人员
投标 *- - 销售人员
发票 *- - 销售人员
投标保证金 *- - 销售人员
合同 *- - 销售人员
财报 *- - 销售人员
外派单 *- - 销售人员

未确认款项 *- - 公司
财报投标保证金 *- - 公司
发票 *- - 公司
投标保证金 *- - 公司

class 费用{
  float 金额
  string 备注
  enum 费用类型
  string 日期
}
财报投标保证金 - - -|> 费用
投标保证金 - - -|> 费用
预存记录 - - -|> 费用
现金流水 - - -|> 费用
支出方式 - - -|> 费用

class 支出方式{
  string 是否为现金支出
}
总经办支出 - -|> 支出方式
行政管理费用 - -|> 支出方式
毛利 - -|> 支出方式
财报 - -|> 支出方式

class 项目相关{
  string 联系方式
  string 项目预算
  string 客户名称
  string 项目名称
  string 决策人
}
项目 - - -|> 项目相关
投标 - - -|> 项目相关
@enduml

PlantUML version 1.2021.7(Sun May 23 20:40:07 CST 2021)
(GPL source distribution)
Java Runtime: OpenJDK Runtime Environment
JVM: OpenJDK 64-Bit Server VM
Default Encoding: UTF-8
Language: zh
Country: CN
--></g></svg>